# xmcd
# 
# Track frame offsets:
#	150
#	26673
#	43315
#	55460
#	72814
#	90670
#	107533
#	121589
#	137140
#	169918
#	186115
#	198524
#	217980
#	239367
#
# Disc length: 3455 seconds
#
# Revision: 1
# Processed by: cddbd v1.5.1PL0 Copyright (c) Steve Scherf et al.
# Submitted via: Audio-CD-Archiv 3.00.487
#
DISCID=c70d7d0e
DTITLE=Joy Division - Winter Gardens [CD 1)
DYEAR=1900
DGENRE=blues
TTITLE0=I Remember Nothing (Live In Bournemouth 02.11.79)
TTITLE1=Love Will Tear Us Apart (Live In Bournemouth 02.11.79)
TTITLE2=Interzone (Live In Bournemouth 02.11.79)
TTITLE3=Colony (Live In Bournemouth 02.11.79)
TTITLE4=Insight (Live In Bournemouth 02.11.79)
TTITLE5=These Days (Live In Bournemouth 02.11.79)
TTITLE6=Digital (Live In Bournemouth 02.11.79)
TTITLE7=Transmission (Live In Bournemouth 02.11.79)
TTITLE8=Atrocity Exhibition (Live In Bournemouth 02.11.79)
TTITLE9=Disorder (Live In Malvern 05.04.80)
TTITLE10=Wilderness (Live In Malvern 05.04.80)
TTITLE11=Twenty Four Hours (Live In Malvern 05.04.80)
TTITLE12=Heart And Soul (Live In Malvern 05.04.80)
TTITLE13=Atmosphere (Live In Malvern 05.04.80)
EXTD=
EXTT0=
EXTT1=
EXTT2=
EXTT3=
EXTT4=
EXTT5=
EXTT6=
EXTT7=
EXTT8=
EXTT9=
EXTT10=
EXTT11=
EXTT12=
EXTT13=
PLAYORDER=
